<svg width="134" height="135" viewBox="0 0 134 135" fill="none" xmlns="http://www.w3.org/2000/svg">
<path d="M66.9623 61.9286C77.9883 61.9286 86.9266 52.9903 86.9266 41.9643C86.9266 30.9383 77.9883 22 66.9623 22C55.9364 22 46.998 30.9383 46.998 41.9643C46.998 52.9903 55.9364 61.9286 66.9623 61.9286Z" stroke="black" stroke-width="6" stroke-linecap="round" stroke-linejoin="round"/>
<path d="M104.926 101.857C102.347 93.8152 97.2806 86.8001 90.4578 81.823C83.635 76.8459 75.408 74.1641 66.9627 74.1641C58.5175 74.1641 50.2904 76.8459 43.4676 81.823C36.6448 86.8001 31.5788 93.8152 28.9999 101.857H104.926Z" stroke="black" stroke-width="6" stroke-linecap="round" stroke-linejoin="round"/>
<path d="M131 67.5C131 103.143 102.325 132 67 132C31.6748 132 3 103.143 3 67.5C3 31.8566 31.6748 3 67 3C102.325 3 131 31.8566 131 67.5Z" stroke="black" stroke-width="6"/>
</svg>
